Coordinates
version=1
nRows=17
nColumns=40
inDegrees=yes

Units are S.I. units (second, meters, Newtons, ...)
Angles are in degrees.

endheader
time	pelvis_tilt	pelvis_list	pelvis_rotation	pelvis_tx	pelvis_ty	pelvis_tz	hip_flexion_r	hip_adduction_r	hip_rotation_r	knee_angle_r	knee_angle_r_beta	ankle_angle_r	subtalar_angle_r	mtp_angle_r	hip_flexion_l	hip_adduction_l	hip_rotation_l	knee_angle_l	knee_angle_l_beta	ankle_angle_l	subtalar_angle_l	mtp_angle_l	lumbar_extension	lumbar_bending	lumbar_rotation	arm_flex_r	arm_add_r	arm_rot_r	elbow_flex_r	pro_sup_r	wrist_flex_r	wrist_dev_r	arm_flex_l	arm_add_l	arm_rot_l	elbow_flex_l	pro_sup_l	wrist_flex_l	wrist_dev_l
     39.13000000	     -9.01770408	     -8.79487574	      1.64859325	      1.05937292	      0.90996610	      0.47861934	     -0.53307551	      8.10176248	    -15.55324048	      4.46066906	      4.46066906	     15.83896384	     13.10504525	     -1.95732420	     39.93235373	    -12.02149721	      4.35072802	     26.20615019	     26.20615019	      5.95260565	    -10.65060770	     13.47983729	     -9.90045241	      8.08312136	      6.61601864	     47.44683583	    -14.28455693	     -1.36666786	     95.86208372	     44.47513568	      0.00000000	      0.00000000	    -20.68481670	     -7.51430743	     10.85325653	     35.77024365	     44.39087512	      0.00000000	      0.00000000
     39.14185714	     -8.88319712	     -8.63283420	      1.43220735	      1.06020422	      0.90868222	      0.47670793	     -1.08299420	      7.71660916	    -15.16129084	      4.99970340	      4.99970340	     16.58541145	     12.80956972	     -1.93077986	     38.93701339	    -11.87174452	      3.57732870	     25.61655303	     25.61655303	      5.29503868	    -11.01435141	     12.94831425	     -9.90975792	      7.90006813	      6.18872859	     48.47547337	    -13.43232055	     -0.90384195	     97.76673824	     44.41516255	      0.00000000	      0.00000000	    -21.44966716	     -7.34802420	     11.32992477	     35.94970189	     44.33818542	      0.00000000	      0.00000000
     39.15371429	     -8.81285665	     -8.56494504	      1.24000366	      1.06091819	      0.90736999	      0.47472196	     -1.50113386	      7.41147304	    -14.79593433	      5.61661427	      5.61661427	     17.20124747	     12.53192902	     -1.96724891	     38.37237076	    -11.78314234	      3.05540525	     25.81185341	     25.81185341	      4.91712561	    -11.53014317	     12.36696532	     -9.78296729	      7.79364662	      6.06975723	     49.35173732	    -13.03207377	     -0.71918324	     99.00370002	     44.38113581	      0.00000000	      0.00000000	    -21.93329164	     -7.21648763	     11.64325349	     35.99610530	     44.30396030	      0.00000000	      0.00000000
     39.16557143	     -8.80534370	     -8.48593019	      1.05465682	      1.06157042	      0.90627874	      0.47266350	     -1.69814053	      7.06287451	    -14.31860189	      6.52920958	      6.52920958	     18.13983146	     11.93106673	     -1.07792836	     37.77851433	    -11.65298639	      2.76470877	     25.87892593	     25.87892593	      3.18404446	    -12.69982769	      8.24989535	     -9.63390098	      7.64983578	      6.33433399	     49.37304741	    -13.25178032	     -0.61660241	    101.46448108	     44.36878639	      0.00000000	      0.00000000	    -22.20180229	     -7.59950105	     13.54746804	     36.51678801	     44.16465052	      0.00000000	      0.00000000
     39.17742857	     -8.66546279	     -8.32767147	      0.98566946	      1.06202738	      0.90567882	      0.47030088	     -2.01720712	      6.60492585	    -14.09340915	      7.39876510	      7.39876510	     18.57534114	     11.59342048	     -1.27152400	     37.43905478	    -11.41369979	      2.59312606	     26.80367915	     26.80367915	      3.38136750	    -13.21036770	      7.96216733	     -9.64502315	      7.43784059	      6.05772914	     49.86296210	    -12.77619190	     -0.53110501	    102.25391069	     44.34929549	      0.00000000	      0.00000000	    -22.28691099	     -7.51898918	     13.76490570	     36.33319751	     44.14745866	      0.00000000	      0.00000000
     39.18928571	     -8.59464095	     -8.14366618	      0.92318702	      1.06231846	      0.90531431	      0.46774926	     -2.04757042	      6.05804509	    -13.90326519	      8.64882614	      8.64882614	     19.03689936	     11.02773389	     -1.50480649	     37.19697898	    -11.12462603	      2.53587887	     27.80241086	     27.80241086	      3.74812041	    -13.74230556	      7.62074415	     -9.63048837	      7.25496246	      5.68045335	     50.07014099	    -12.29252645	     -0.38547587	    103.41379969	     44.31664144	      0.00000000	      0.00000000	    -22.19221269	     -7.45699292	     14.01388172	     36.10383341	     44.13075983	      0.00000000	      0.00000000
     39.20114286	     -8.57211197	     -7.89333763	      0.92444502	      1.06240210	      0.90521918	      0.46496260	     -1.90414801	      5.39991487	    -13.76417453	     10.08742237	     10.08742237	     19.43411281	     10.40846168	     -1.73829239	     37.00964997	    -10.71825043	      2.55318154	     28.78870336	     28.78870336	      4.23689447	    -14.19539857	      7.39659810	     -9.59975588	      7.01657375	      5.41780743	     49.93457667	    -12.03165604	     -0.27516215	    104.79918185	     44.27959491	      0.00000000	      0.00000000	    -21.77388731	     -7.43008427	     14.28928120	     35.83827107	     44.11885959	      0.00000000	      0.00000000
     39.21300000	     -8.56229978	     -7.61189012	      0.95310516	      1.06245370	      0.90545488	      0.46198649	     -1.71044060	      4.67499845	    -13.72848473	     11.58095343	     11.58095343	     19.70691073	      9.93687346	     -1.97450517	     36.78692306	    -10.24923761	      2.62268508	     29.69246681	     29.69246681	      4.94350446	    -14.54311422	      7.47595053	     -9.57436458	      6.75798278	      5.39012387	     49.37090614	    -12.14095317	     -0.30026522	    106.44099600	     44.24327514	      0.00000000	      0.00000000	    -21.02301101	     -7.52213291	     14.62865230	     35.43870349	     44.11158165	      0.00000000	      0.00000000
     39.22485714	     -8.47863377	     -7.37546745	      0.98787503	      1.06254362	      0.90606460	      0.45891829	     -1.56999591	      3.96934472	    -13.79843682	     13.11372438	     13.11372438	     19.82651591	      9.64986261	     -2.31392590	     36.42301783	     -9.82633603	      2.68026773	     30.46589997	     30.46589997	      5.78781623	    -14.76700907	      7.69148367	     -9.63534411	      6.56809863	      5.38028264	     48.66450272	    -12.30480087	     -0.36986594	    107.84822760	     44.21460335	      0.00000000	      0.00000000	    -20.15987934	     -7.63953074	     14.90251654	     35.10652633	     44.11263536	      0.00000000	      0.00000000
     39.23671429	     -8.41058868	     -7.15822673	      1.03844650	      1.06264534	      0.90698582	      0.45572128	     -1.43214825	      3.25226966	    -14.02161315	     14.58558531	     14.58558531	     19.66630177	      9.63411714	     -3.00971869	     36.00574063	     -9.38176128	      2.77902816	     31.11774391	     31.11774391	      7.05345468	    -14.85932431	      8.98881769	     -9.69386151	      6.40198974	      5.98063969	     47.28432547	    -13.16411356	     -0.90036984	    110.09111992	     44.20127007	      0.00000000	      0.00000000	    -18.73647534	     -7.85727924	     15.54653324	     34.31329158	     44.11829212	      0.00000000	      0.00000000
     39.24857143	     -8.32991083	     -6.93724384	      1.05352852	      1.06275214	      0.90808572	      0.45253853	     -1.16248975	      2.50807602	    -14.03358284	     16.31727526	     16.31727526	     19.49824015	      9.31434178	     -3.52358436	     35.39968884	     -8.99843048	      2.66916907	     31.42071104	     31.42071104	      7.79269647	    -14.87933849	      8.90340183	     -9.71623411	      6.26637209	      5.70707421	     46.39021298	    -13.01989605	     -0.75411023	    110.47778554	     44.18984809	      0.00000000	      0.00000000	    -17.97755027	     -7.98305643	     15.58216866	     34.39618634	     44.13846623	      0.00000000	      0.00000000
     39.26042857	     -8.34966449	     -6.74119632	      1.07150107	      1.06276687	      0.90923034	      0.44933573	     -0.62426141	      1.71779342	    -14.17187723	     18.32099706	     18.32099706	     19.10235465	      9.08533506	     -4.43878199	     34.80069751	     -8.59971329	      2.61474274	     31.50261425	     31.50261425	      8.48603338	    -14.94204480	      9.00995244	     -9.63860527	      6.16526019	      5.66404487	     45.12947019	    -13.21935161	     -0.68814414	    111.13181328	     44.17451707	      0.00000000	      0.00000000	    -17.03961333	     -8.18173611	     15.46470625	     34.51991917	     44.18578412	      0.00000000	      0.00000000
     39.27228571	     -8.35120677	     -6.52787933	      1.07520631	      1.06273176	      0.91061311	      0.44614200	     -0.10658866	      0.90552927	    -14.25975404	     20.19757755	     20.19757755	     17.77439134	      8.72089327	     -7.54746384	     34.11506434	     -8.17503401	      2.53886382	     31.45923453	     31.45923453	      9.29404302	    -15.00854255	      9.79679506	     -9.64719135	      6.03189142	      6.26350668	     43.12808826	    -14.11168764	     -1.24095035	    112.86002870	     44.17769923	      0.00000000	      0.00000000	    -15.63441945	     -8.34663842	     14.93308505	     34.48918912	     44.34754781	      0.00000000	      0.00000000
     39.28414286	     -8.28752082	     -6.38042976	      1.04263602	      1.06270366	      0.91218936	      0.44316174	      0.60042764	      0.14387024	    -14.05836293	     22.58774341	     22.58774341	     17.03496594	      8.18586457	     -8.36878640	     33.24730560	     -7.89323354	      2.32630826	     31.19777073	     31.19777073	      9.82072242	    -14.88077923	      9.66909339	     -9.67310050	      5.95573444	      6.04473408	     41.62048860	    -14.00702704	     -0.99281096	    112.57614356	     44.17813648	      0.00000000	      0.00000000	    -14.71495990	     -8.59487368	     14.71994236	     34.78839152	     44.39698438	      0.00000000	      0.00000000
     39.29600000	     -8.45861370	     -6.21605849	      1.00548407	      1.06231376	      0.91344189	      0.44013236	      1.88779795	     -0.70617261	    -13.83391403	     25.47909229	     25.47909229	     15.84450570	      7.25412311	    -10.14065472	     32.56729470	     -7.55014094	      2.12193158	     30.75146855	     30.75146855	     10.18882546	    -14.92417950	      9.62564120	     -9.43144553	      5.92330373	      6.03972120	     39.97721955	    -14.36629432	     -0.96907647	    112.42429881	     44.18621419	      0.00000000	      0.00000000	    -13.70516405	     -8.85893765	     14.17610033	     35.34184585	     44.49692934	      0.00000000	      0.00000000
     39.30785714	     -8.48219444	     -6.11926300	      0.96195206	      1.06189536	      0.91492634	      0.43733665	      2.90117121	     -1.31833365	    -13.23728028	     27.76443364	     27.76443364	     12.15943391	      4.89472525	    -17.92608896	     31.72285239	     -7.28630314	      2.00480853	     30.27749894	     30.27749894	     10.43962239	    -14.99526472	      9.40809925	     -9.47779372	      5.88415364	      6.32919527	     37.79480026	    -14.77310640	     -1.54578326	    112.87558576	     44.24332801	      0.00000000	      0.00000000	    -12.69757087	     -8.86992586	     11.58541384	     36.44886657	     44.92440719	      0.00000000	      0.00000000
     39.31971429	     -8.53216686	     -5.97058279	      0.89548477	      1.06127138	      0.91640039	      0.43457236	      4.48315088	     -2.16245319	    -12.77086445	     31.25988816	     31.25988816	     10.61425477	      3.66388343	    -18.71440729	     30.86329955	     -7.00995959	      1.72658954	     29.71840394	     29.71840394	     10.75396240	    -14.87091388	      9.33736320	     -9.43342624	      5.84829788	      6.19827915	     35.99048342	    -14.89046689	     -1.28101869	    111.92137347	     44.26303286	      0.00000000	      0.00000000	    -11.57740136	     -9.18867994	     11.15761428	     37.01308035	     45.00007413	      0.00000000	      0.00000000
